<?xml version="1.0" encoding="UTF-8"?>
<svg width="1210px" height="111px" viewBox="0 0 1210 111" version="1.1" xmlns="http://www.w3.org/2000/svg" xmlns:xlink="http://www.w3.org/1999/xlink">
    <!-- Generator: Sketch 57.1 (83088) - https://sketch.com -->
    <title>SHARE - DESKTOP Copy</title>
    <desc>Created with Sketch.</desc>
    <g id="Page-1" stroke="none" stroke-width="1" fill="none" fill-rule="evenodd">
        <g id="CHE---DOCUMENTATION" transform="translate(-66.000000, -2962.000000)">
            <g id="SHARE---DESKTOP-Copy" transform="translate(66.000000, 2953.000000)">
                <g id="SHARE---FACEBOOK" transform="translate(0.000000, 44.000000)">
                    <g id="Group-12">
                        <polygon id="Rectangle-3-Copy" fill="#8DB524" points="0 0 242 0 242 76 0 76"></polygon>
                        <g id="ICON---FB" transform="translate(103.000000, 20.000000)" fill="#FFFFFF">
                            <g id="Shape">
                                <path d="M18,0 C8.064,0 0,8.064 0,18 C0,27.936 8.064,36 18,36 C27.936,36 36,27.936 36,18 C36,8.064 27.936,0 18,0 Z M18,33.84 C9.216,33.84 2.16,26.784 2.16,18 C2.16,9.216 9.216,2.16 18,2.16 C26.784,2.16 33.84,9.216 33.84,18 C33.84,26.784 26.784,33.84 18,33.84 Z" fill-rule="nonzero"></path>
                                <path d="M15.912,25.92 L19.152,25.92 L19.152,18 L21.312,18 L21.6,15.264 L19.152,15.264 L19.152,13.896 C19.152,13.176 19.224,12.816 20.232,12.816 L21.6,12.816 L21.6,10.08 L19.44,10.08 C16.848,10.08 15.912,11.376 15.912,13.608 L15.912,15.264 L14.256,15.264 L14.256,18 L15.912,18 C15.912,18 15.912,25.92 15.912,25.92 Z" fill-rule="nonzero"></path>
                            </g>
                        </g>
                    </g>
                </g>
                <g id="SHARE---TWITTER" transform="translate(242.000000, 44.000000)">
                    <g id="Group-14">
                        <polygon id="Rectangle-3-Copy-4" fill="#8961A6" points="0 0 242 0 242 76 0 76"></polygon>
                        <g id="ICON---Twitter" transform="translate(103.000000, 20.000000)" fill="#FFFFFF">
                            <g>
                                <path d="M17.712,14.328 L17.784,15.048 L17.136,14.976 C14.76,14.688 12.6,13.536 10.8,11.736 L9.936,10.8 L9.72,11.448 C9.216,12.96 9.576,14.544 10.512,15.552 C11.016,16.128 10.944,16.2 10.008,15.84 C9.72,15.696 9.432,15.624 9.36,15.696 C9.288,15.768 9.576,17.064 9.864,17.568 C10.224,18.288 10.944,18.936 11.664,19.368 L12.312,19.656 L11.52,19.656 C10.8,19.656 10.728,19.656 10.8,19.944 C11.088,20.88 12.096,21.816 13.248,22.248 L14.04,22.536 L13.32,22.968 C12.24,23.616 11.016,23.976 9.792,23.976 C9.216,23.976 8.712,24.048 8.712,24.12 C8.712,24.264 10.296,25.056 11.304,25.344 C14.112,26.28 17.496,25.848 20.016,24.336 C21.816,23.256 23.616,21.024 24.408,18.936 C24.84,17.784 25.344,15.768 25.344,14.76 C25.344,14.112 25.416,14.04 26.136,13.248 C26.568,12.816 27,12.312 27.072,12.168 C27.216,11.88 27.216,11.88 26.496,12.168 C25.344,12.6 25.2,12.528 25.776,11.88 C26.208,11.448 26.712,10.656 26.712,10.368 C26.712,10.296 26.496,10.368 26.28,10.512 C26.064,10.656 25.488,10.872 25.128,11.016 L24.408,11.232 L23.76,10.8 C23.4,10.584 22.896,10.296 22.608,10.152 C21.96,9.936 20.88,10.008 20.304,10.224 C18.648,10.872 17.64,12.528 17.712,14.328 C17.712,14.328 17.64,12.528 17.712,14.328 Z" id="Oval-1" fill-rule="nonzero"></path>
                                <path d="M18,0 C8.064,0 0,8.064 0,18 C0,27.936 8.064,36 18,36 C27.936,36 36,27.936 36,18 C36,8.064 27.936,0 18,0 Z M18,33.84 C9.216,33.84 2.16,26.784 2.16,18 C2.16,9.216 9.216,2.16 18,2.16 C26.784,2.16 33.84,9.216 33.84,18 C33.84,26.784 26.784,33.84 18,33.84 Z" id="Shape" fill-rule="nonzero"></path>
                            </g>
                        </g>
                    </g>
                </g>
                <g id="SHARE---MAIL" transform="translate(726.000000, 44.000000)">
                    <g id="Group-16">
                        <polygon id="Rectangle-3-Copy-6" fill="#41BFED" points="0 0 242 0 242 76 0 76"></polygon>
                        <g id="ICON---Mail" transform="translate(103.000000, 20.000000)" fill="#FFFFFF">
                            <g id="Shape">
                                <path d="M18,20.664 C17.712,20.664 17.496,20.52 16.992,20.232 L10.08,15.336 L10.08,24.552 C10.08,25.272 10.512,25.848 11.088,25.848 L24.912,25.848 C25.488,25.848 25.92,25.272 25.92,24.552 L25.92,15.336 L19.008,20.16 C18.504,20.52 18.288,20.664 18,20.664 Z M24.912,10.08 L11.088,10.08 C10.512,10.08 10.08,10.656 10.08,11.376 L10.08,12.384 L18,17.928 L25.92,12.384 L25.92,11.376 C25.92,10.656 25.488,10.08 24.912,10.08 Z" fill-rule="nonzero"></path>
                                <path d="M18,0 C8.064,0 0,8.064 0,18 C0,27.936 8.064,36 18,36 C27.936,36 36,27.936 36,18 C36,8.064 27.936,0 18,0 Z M18,33.84 C9.216,33.84 2.16,26.784 2.16,18 C2.16,9.216 9.216,2.16 18,2.16 C26.784,2.16 33.84,9.216 33.84,18 C33.84,26.784 26.784,33.84 18,33.84 Z" fill-rule="nonzero"></path>
                            </g>
                        </g>
                    </g>
                </g>
                <g id="SHARE---PRINT" transform="translate(968.000000, 44.000000)">
                    <g id="Group-17">
                        <polygon id="Rectangle-3-Copy-7" fill="#4A4A4A" points="0 0 242 0 242 76 0 76"></polygon>
                        <g id="ICON---Print" transform="translate(103.000000, 20.000000)" fill="#FFFFFF">
                            <g id="Shape">
                                <path d="M18,0 C8.064,0 0,8.064 0,18 C0,27.936 8.064,36 18,36 C27.936,36 36,27.936 36,18 C36,8.064 27.936,0 18,0 Z M18,33.84 C9.216,33.84 2.16,26.784 2.16,18 C2.16,9.216 9.216,2.16 18,2.16 C26.784,2.16 33.84,9.216 33.84,18 C33.84,26.784 26.784,33.84 18,33.84 Z" fill-rule="nonzero"></path>
                                <path d="M24.192,14.472 L11.808,14.472 C10.296,14.472 9.144,15.624 9.144,17.136 L9.144,22.392 L12.672,22.392 L12.672,25.92 L23.256,25.92 L23.256,22.392 L26.784,22.392 L26.784,17.136 C26.784,15.624 25.632,14.472 24.192,14.472 L24.192,14.472 Z M21.528,24.192 L14.472,24.192 L14.472,19.8 L21.528,19.8 L21.528,24.192 L21.528,24.192 Z M23.256,10.08 L12.744,10.08 L12.744,13.608 L23.328,13.608 L23.328,10.08 L23.256,10.08 Z" fill-rule="nonzero"></path>
                            </g>
                        </g>
                    </g>
                </g>
                <text id="Normal-state" font-family="TrebuchetMS-Bold, Trebuchet MS" font-size="24" font-weight="bold" line-spacing="36" fill="#D41217">
                    <tspan x="532.820095" y="23">Normal state</tspan>
                </text>
            </g>
        </g>
    </g>
</svg>